<?xml version="1.0" encoding="UTF-8" standalone="no"?>
<svg version="1.1" xmlns="http://www.w3.org/2000/svg" width="4.24in" height="4.26in" viewBox="0 0 517.07317073171 519.51219512195"><g id="svg-group-152782658000" transform="translate(0) rotate(0) scale(1.1947493060527, 1.2003849159869)"> <svg version="1.1" x="0px" y="0px" viewBox="0 0 432 432" enable-background="new 0 0 432 432" id="svg-doc-1276332540000" width="432" height="432" fill="#2e1d6e" stroke="#2e1d6e" xml:space="preserve"> <rect y="0" width="43.2" height="432" fill="#2e1d6e" stroke="#2e1d6e"> </rect><rect x="129.601" y="0" width="43.2" height="432" fill="#2e1d6e" stroke="#2e1d6e"> </rect><rect x="259.201" y="0.001" width="43.2" height="431.999" fill="#2e1d6e" stroke="#2e1d6e"> </rect><rect x="388.803" y="0.001" width="43.199" height="431.999" fill="#2e1d6e" stroke="#2e1d6e"> </rect></svg></g><g id="svg-group-1962289684000" transform="translate(0) rotate(0) scale(1.1947493060527, 1.2003849159869)"> <svg version="1.1" x="0px" y="0px" viewBox="0 0 432 432" enable-background="new 0 0 432 432" id="svg-doc-351814312000" width="432" height="432" fill="#2e4870" stroke="#2e4870" xml:space="preserve"> <rect x="43.2" y="0" width="43.2" height="432" fill="#2e4870" stroke="#2e4870"> </rect><rect x="172.801" width="43.2" height="432" fill="#2e4870" stroke="#2e4870"> </rect><rect x="302.401" y="0" width="43.2" height="432" fill="#2e4870" stroke="#2e4870"> </rect></svg></g><g id="svg-group-1935459666000" transform="translate(0) rotate(0) scale(1.1947493060527, 1.2003849159869)"> <svg version="1.1" x="0px" y="0px" viewBox="0 0 432 432" enable-background="new 0 0 432 432" id="svg-doc-307523108000" width="432" height="432" fill="#492e59" stroke="#492e59" xml:space="preserve"> <rect x="86.4" width="43.2" height="432" fill="#492e59" stroke="#492e59"> </rect><rect x="216.001" y="0" width="43.2" height="432" fill="#492e59" stroke="#492e59"> </rect><rect x="345.602" width="43.199" height="432" fill="#492e59" stroke="#492e59"> </rect></svg></g><g id="svg-group-1873993927000" transform="translate(361.92574146768,274.48957595386) rotate(0) scale(2.0175380082334, 2.0175380082334)"> <text x="0" y="0" id="svg-text-2016220178000" style="" font-family="Luckiest Guy" font-size="46" font-weight="normal" font-style="italic" fill="#f07d7d"> <tspan text-anchor="middle">LEFT</tspan></text></g><g id="svg-group-184695508000" transform="translate(72.214350774216,83.53152514928) rotate(0) scale(0.40114001021763, 0.40114001021763)"> <svg version="1.1" x="0px" y="0px" viewBox="0 0 288 288" enable-background="new 0 0 288 288" id="svg-doc-29441104000" width="288" height="288" xml:space="preserve"> <circle fill="#6D6E71" cx="144" cy="144" r="126"> </circle></svg></g></svg>
