<?xml version="1.0" encoding="UTF-8" standalone="no"?>
<svg version="1.1" xmlns="http://www.w3.org/2000/svg" width="4.24in" height="4.26in" viewBox="0 0 517.07317073171 519.51219512195"><g id="svg-group-421957932000" transform="translate(0) rotate(0) scale(1.1980865946171, 1.2037379464785)"> <svg version="1.1" x="0px" y="0px" viewBox="0 0 432 432" enable-background="new 0 0 432 432" id="svg-doc-1391589804000" width="432" height="432" fill="#2e1d6e" stroke="#2e1d6e" xml:space="preserve"> <rect y="0" width="43.2" height="432" fill="#2e1d6e" stroke="#2e1d6e"> </rect><rect x="129.601" y="0" width="43.2" height="432" fill="#2e1d6e" stroke="#2e1d6e"> </rect><rect x="259.201" y="0.001" width="43.2" height="431.999" fill="#2e1d6e" stroke="#2e1d6e"> </rect><rect x="388.803" y="0.001" width="43.199" height="431.999" fill="#2e1d6e" stroke="#2e1d6e"> </rect></svg></g><g id="svg-group-953928351000" transform="translate(0) rotate(0) scale(1.1980865946171, 1.2037379464785)"> <svg version="1.1" x="0px" y="0px" viewBox="0 0 432 432" enable-background="new 0 0 432 432" id="svg-doc-570839575000" width="432" height="432" fill="#2e4870" stroke="#2e4870" xml:space="preserve"> <rect x="43.2" y="0" width="43.2" height="432" fill="#2e4870" stroke="#2e4870"> </rect><rect x="172.801" width="43.2" height="432" fill="#2e4870" stroke="#2e4870"> </rect><rect x="302.401" y="0" width="43.2" height="432" fill="#2e4870" stroke="#2e4870"> </rect></svg></g><g id="svg-group-1114125909000" transform="translate(0) rotate(0) scale(1.1991990241385, 1.204855623309)"> <svg version="1.1" x="0px" y="0px" viewBox="0 0 432 432" enable-background="new 0 0 432 432" id="svg-doc-637089327000" width="432" height="432" fill="#492e59" stroke="#492e59" xml:space="preserve"> <rect x="86.4" width="43.2" height="432" fill="#492e59" stroke="#492e59"> </rect><rect x="216.001" y="0" width="43.2" height="432" fill="#492e59" stroke="#492e59"> </rect><rect x="345.602" width="43.199" height="432" fill="#492e59" stroke="#492e59"> </rect></svg></g><g id="svg-group-1132977844000" transform="translate(258.53658536586,282.25609756099) rotate(0) scale(1, 1)"> <text x="0" y="0" id="svg-text-1898029422000" style="" font-family="Open Sans" font-size="90" font-weight="normal" font-style="normal" fill="#d48fff"> <tspan text-anchor="middle">RIGHT</tspan></text></g></svg>
