<?xml version="1.0" encoding="UTF-8" standalone="no"?>
<svg version="1.1" xmlns="http://www.w3.org/2000/svg" width="4.92in" height="4.24in" viewBox="0 0 600 517.07317073171"><g id="svg-group-1694026767000" transform="translate(0) rotate(0) scale(1.3877282892554, 1.195928444399)"> <svg version="1.1" x="0px" y="0px" viewBox="0 0 432 432" enable-background="new 0 0 432 432" id="svg-doc-125882780000" width="432" height="432" fill="#2e1d6e" stroke="#2e1d6e" xml:space="preserve"> <rect y="0" width="43.2" height="432" fill="#2e1d6e" stroke="#2e1d6e"> </rect><rect x="129.601" y="0" width="43.2" height="432" fill="#2e1d6e" stroke="#2e1d6e"> </rect><rect x="259.201" y="0.001" width="43.2" height="431.999" fill="#2e1d6e" stroke="#2e1d6e"> </rect><rect x="388.803" y="0.001" width="43.199" height="431.999" fill="#2e1d6e" stroke="#2e1d6e"> </rect></svg></g><g id="svg-group-393138153000" transform="translate(0) rotate(0) scale(1.3877282892554, 1.195928444399)"> <svg version="1.1" x="0px" y="0px" viewBox="0 0 432 432" enable-background="new 0 0 432 432" id="svg-doc-1404082884000" width="432" height="432" fill="#2e4870" stroke="#2e4870" xml:space="preserve"> <rect x="43.2" y="0" width="43.2" height="432" fill="#2e4870" stroke="#2e4870"> </rect><rect x="172.801" width="43.2" height="432" fill="#2e4870" stroke="#2e4870"> </rect><rect x="302.401" y="0" width="43.2" height="432" fill="#2e4870" stroke="#2e4870"> </rect></svg></g><g id="svg-group-532931777000" transform="translate(0) rotate(0) scale(1.3877282892554, 1.195928444399)"> <svg version="1.1" x="0px" y="0px" viewBox="0 0 432 432" enable-background="new 0 0 432 432" id="svg-doc-1233845904000" width="432" height="432" fill="#492e59" stroke="#492e59" xml:space="preserve"> <rect x="86.4" width="43.2" height="432" fill="#492e59" stroke="#492e59"> </rect><rect x="216.001" y="0" width="43.2" height="432" fill="#492e59" stroke="#492e59"> </rect><rect x="345.602" width="43.199" height="432" fill="#492e59" stroke="#492e59"> </rect></svg></g><g id="svg-group-545920812000" transform="translate(289.95806765003,437.51534155194) rotate(332.25462855573) scale(1, 1)"> <text x="0" y="0" id="svg-text-1585660217000" style="" font-family="Philosopher" font-size="90" font-weight="bold" font-style="normal" fill="#ffffff"> <tspan text-anchor="middle">TOP</tspan></text></g><image xmlns:xlink="http://www.w3.org/1999/xlink" x="14.703746844654" y="-550.49534115664" id="myImage" transform=" scale(0.18239669210083, 0.18239669210083)" width="3264" height="2448" xlink:href="IMG_3987.jpg"> </image></svg>
