<?xml version="1.0" encoding="UTF-8" standalone="no"?>
<svg version="1.1" xmlns="http://www.w3.org/2000/svg" width="4.66in" height="4.35in" viewBox="0 0 568.29268292683 530.48780487805"><g id="svg-group-539022688000" transform="translate(0) rotate(0) scale(1.3179424447202, 1.230268161917)"> <svg version="1.1" x="0px" y="0px" viewBox="0 0 432 432" enable-background="new 0 0 432 432" id="svg-doc-1804529378000" width="432" height="432" fill="#2e1d6e" stroke="#2e1d6e" xml:space="preserve"> <rect y="0" width="43.2" height="432" fill="#2e1d6e" stroke="#2e1d6e"> </rect><rect x="129.601" y="0" width="43.2" height="432" fill="#2e1d6e" stroke="#2e1d6e"> </rect><rect x="259.201" y="0.001" width="43.2" height="431.999" fill="#2e1d6e" stroke="#2e1d6e"> </rect><rect x="388.803" y="0.001" width="43.199" height="431.999" fill="#2e1d6e" stroke="#2e1d6e"> </rect></svg></g><g id="svg-group-1296301726000" transform="translate(0) rotate(0) scale(1.3179424447202, 1.230268161917)"> <svg version="1.1" x="0px" y="0px" viewBox="0 0 432 432" enable-background="new 0 0 432 432" id="svg-doc-1909515696000" width="432" height="432" fill="#2e4870" stroke="#2e4870" xml:space="preserve"> <rect x="86.4" width="43.2" height="432" fill="#2e4870" stroke="#2e4870"> </rect><rect x="216" width="43.201" height="432" fill="#2e4870" stroke="#2e4870"> </rect><rect x="345.601" width="43.2" height="432" fill="#2e4870" stroke="#2e4870"> </rect></svg></g><g id="svg-group-1536275900000" transform="translate(0) rotate(0) scale(1.3167646588, 1.2291687265623)"> <svg version="1.1" x="0px" y="0px" viewBox="0 0 432 432" enable-background="new 0 0 432 432" id="svg-doc-1252294125000" width="432" height="432" fill="#492e59" stroke="#492e59" xml:space="preserve"> <rect x="43.2" width="43.2" height="432" fill="#492e59" stroke="#492e59"> </rect><rect x="172.801" width="43.2" height="432" fill="#492e59" stroke="#492e59"> </rect><rect x="302.402" width="43.198" height="432" fill="#492e59" stroke="#492e59"> </rect></svg></g><g id="svg-group-1098344008000" transform="translate(122.4054551176,267.61203879666) rotate(0) scale(2.8526806948499, 2.8526806948499)"> <text x="0" y="0" id="svg-text-1652156742000" style="" font-family="Roboto" font-size="24" font-weight="bold" font-style="italic" fill="#ff8f8f"> <tspan text-anchor="middle">BACK</tspan></text></g></svg>
