<?xml version="1.0" encoding="UTF-8" standalone="no"?>
<svg version="1.1" xmlns="http://www.w3.org/2000/svg" width="4.7in" height="4.48in" viewBox="0 0 573.17073170732 546.34146341463"><g id="svg-group-179049493000" transform="translate(0) rotate(0) scale(1.3280190145547, 1.265856422384)"> <svg version="1.1" x="0px" y="0px" viewBox="0 0 432 432" enable-background="new 0 0 432 432" id="svg-doc-543286334000" width="432" height="432" fill="#2e1d6e" stroke="#2e1d6e" xml:space="preserve"> <rect y="0" width="43.2" height="432" fill="#2e1d6e" stroke="#2e1d6e"> </rect><rect x="129.601" y="0" width="43.2" height="432" fill="#2e1d6e" stroke="#2e1d6e"> </rect><rect x="259.201" y="0.001" width="43.2" height="431.999" fill="#2e1d6e" stroke="#2e1d6e"> </rect><rect x="388.803" y="0.001" width="43.199" height="431.999" fill="#2e1d6e" stroke="#2e1d6e"> </rect></svg></g><g id="svg-group-1159240519000" transform="translate(0) rotate(0) scale(1.3268182740352, 1.2647118867399)"> <svg version="1.1" x="0px" y="0px" viewBox="0 0 432 432" enable-background="new 0 0 432 432" id="svg-doc-1260940095000" width="432" height="432" fill="#2e4870" stroke="#2e4870" xml:space="preserve"> <rect x="43.2" y="0" width="43.2" height="432" fill="#2e4870" stroke="#2e4870"> </rect><rect x="172.801" width="43.2" height="432" fill="#2e4870" stroke="#2e4870"> </rect><rect x="302.401" y="0" width="43.2" height="432" fill="#2e4870" stroke="#2e4870"> </rect></svg></g><g id="svg-group-1653537110000" transform="translate(0) rotate(0) scale(1.3268182740352, 1.2647118867399)"> <svg version="1.1" x="0px" y="0px" viewBox="0 0 432 432" enable-background="new 0 0 432 432" id="svg-doc-561048923000" width="432" height="432" fill="#492e59" stroke="#492e59" xml:space="preserve"> <rect x="86.4" width="43.2" height="432" fill="#492e59" stroke="#492e59"> </rect><rect x="216.001" y="0" width="43.2" height="432" fill="#492e59" stroke="#492e59"> </rect><rect x="345.602" width="43.199" height="432" fill="#492e59" stroke="#492e59"> </rect></svg></g><g id="svg-group-267255373000" transform="translate(286.58536585367,125.00197501718) rotate(0) scale(1.7315313761798, 1.7315313761798)"> <text x="0" y="0" id="svg-text-1687302785000" style="" font-family="Josefin Sans" font-size="46" font-weight="bold" font-style="normal" fill="#ff8282"> <tspan text-anchor="middle">FRONT</tspan></text></g><image xmlns:xlink="http://www.w3.org/1999/xlink" x="577.19502074688" y="685.94190871369" id="myImage" transform=" scale(0.40650406504067, 0.40650406504067)" width="256" height="256" xlink:href="square_red_invert.png"> </image></svg>
